<mxfile host="65bd71144e" scale="4" border="0">
    <diagram id="-BmAYUr0pwJ2uD23Ls4K" name="Page-1">
        <mxGraphModel dx="1026" dy="541" grid="1" gridSize="10" guides="1" tooltips="1" connect="1" arrows="1" fold="1" page="1" pageScale="1" pageWidth="583" pageHeight="827" math="0" shadow="0">
            <root>
                <mxCell id="0"/>
                <mxCell id="1" parent="0"/>
                <mxCell id="14" style="edgeStyle=none;html=1;endArrow=none;endFill=0;strokeWidth=4;" edge="1" parent="1" source="16">
                    <mxGeometry relative="1" as="geometry">
                        <mxPoint x="114.54213562373116" y="165.85786437626894" as="targetPoint"/>
                    </mxGeometry>
                </mxCell>
                <mxCell id="15" style="edgeStyle=none;html=1;endArrow=none;endFill=0;strokeWidth=4;" edge="1" parent="1" source="16">
                    <mxGeometry relative="1" as="geometry">
                        <mxPoint x="246.25786437626903" y="165.85786437626894" as="targetPoint"/>
                    </mxGeometry>
                </mxCell>
                <mxCell id="16" value="&quot;A&quot;" style="ellipse;whiteSpace=wrap;html=1;aspect=fixed;strokeWidth=4;strokeColor=none;fontSize=24;fontFamily=Courier New;fontStyle=0" vertex="1" parent="1">
                    <mxGeometry x="160.4" y="80" width="40" height="40" as="geometry"/>
                </mxCell>
                <mxCell id="17" style="edgeStyle=none;html=1;entryX=0.25;entryY=0.08;entryDx=0;entryDy=0;entryPerimeter=0;endArrow=none;endFill=0;strokeWidth=4;" edge="1" parent="1">
                    <mxGeometry relative="1" as="geometry">
                        <mxPoint x="108.99867160784697" y="198.05721037647845" as="sourcePoint"/>
                        <mxPoint x="130.4000000000001" y="243.20000000000005" as="targetPoint"/>
                    </mxGeometry>
                </mxCell>
                <mxCell id="18" style="edgeStyle=none;html=1;exitX=0.3;exitY=0.96;exitDx=0;exitDy=0;entryX=0.74;entryY=0.08;entryDx=0;entryDy=0;entryPerimeter=0;endArrow=none;endFill=0;exitPerimeter=0;strokeWidth=4;" edge="1" parent="1">
                    <mxGeometry relative="1" as="geometry">
                        <mxPoint x="69.99999999999991" y="243.20000000000005" as="targetPoint"/>
                        <mxPoint x="92.40000000000009" y="198.39999999999998" as="sourcePoint"/>
                    </mxGeometry>
                </mxCell>
                <mxCell id="20" style="edgeStyle=none;html=1;endArrow=none;endFill=0;entryX=0.71;entryY=0.07;entryDx=0;entryDy=0;entryPerimeter=0;strokeWidth=4;" edge="1" parent="1">
                    <mxGeometry relative="1" as="geometry">
                        <mxPoint x="228.8000000000001" y="242.79999999999995" as="targetPoint"/>
                        <mxPoint x="251.45572809001465" y="197.8885438199709" as="sourcePoint"/>
                    </mxGeometry>
                </mxCell>
                <mxCell id="23" style="edgeStyle=none;html=1;exitX=0.27;exitY=0.06;exitDx=0;exitDy=0;endArrow=none;endFill=0;exitPerimeter=0;strokeWidth=4;" edge="1" parent="1">
                    <mxGeometry relative="1" as="geometry">
                        <mxPoint x="291.19999999999993" y="242.39999999999998" as="sourcePoint"/>
                        <mxPoint x="269.1112185620884" y="198.00318502831578" as="targetPoint"/>
                    </mxGeometry>
                </mxCell>
                <mxCell id="24" value="&quot;B&quot;" style="ellipse;whiteSpace=wrap;html=1;aspect=fixed;strokeWidth=4;strokeColor=none;fontSize=24;fontFamily=Courier New;fontStyle=0" vertex="1" parent="1">
                    <mxGeometry x="80.4" y="160" width="40" height="40" as="geometry"/>
                </mxCell>
                <mxCell id="25" value="&quot;D&quot;" style="ellipse;whiteSpace=wrap;html=1;aspect=fixed;strokeWidth=4;strokeColor=none;fontSize=24;fontFamily=Courier New;fontStyle=0" vertex="1" parent="1">
                    <mxGeometry x="240" y="160" width="40" height="40" as="geometry"/>
                </mxCell>
                <mxCell id="26" value="&quot;C&quot;" style="ellipse;whiteSpace=wrap;html=1;aspect=fixed;strokeWidth=4;strokeColor=none;fontSize=24;fontFamily=Courier New;fontStyle=0" vertex="1" parent="1">
                    <mxGeometry x="120.4" y="240" width="40" height="40" as="geometry"/>
                </mxCell>
            </root>
        </mxGraphModel>
    </diagram>
</mxfile>